<svg width="195" height="84" viewBox="0 0 195 84" fill="none" xmlns="http://www.w3.org/2000/svg">
<path d="M1.54 76.61H6.3V59.11L8.19 61H11.2L13.86 58.34V26.07L11.2 23.41H8.19L6.3 25.3V23.41H1.54V76.61ZM9.1 27.89V56.52H6.3V27.89H9.1ZM24.2009 21.45L28.4709 17.18V12.84H25.1109L23.5009 18.93H20.9809V21.45H24.2009ZM20.3509 61H25.8109L29.2409 57.57V50.5H24.4809V56.52H21.6809V44.41H29.2409V26.84L25.8109 23.41H20.3509L16.9209 26.84V57.57L20.3509 61ZM24.4809 27.89V39.93H21.6809V27.89H24.4809ZM32.3017 76.61H37.0617V59.11L38.9517 61H41.9617L44.6217 58.34V26.07L41.9617 23.41H38.9517L37.0617 25.3V23.41H32.3017V76.61ZM39.8617 27.89V56.52H37.0617V27.89H39.8617ZM51.1126 61H56.5726L60.0026 57.57V50.5H55.2426V56.52H52.4426V44.41H60.0026V26.84L56.5726 23.41H51.1126L47.6826 26.84V57.57L51.1126 61ZM55.2426 27.89V39.93H52.4426V27.89H55.2426ZM67.1934 61H71.2534V56.52H68.5234V27.89H71.2534V23.41H68.5234V18.37H66.2834L62.5034 24.46V27.89H63.7634V57.57L67.1934 61ZM78.1993 61H82.2593V56.52H79.5293V27.89H82.2593V23.41H79.5293V18.37H77.2893L73.5093 24.46V27.89H74.7693V57.57L78.1993 61ZM88.5052 61H93.9652L97.3952 57.57V50.5H92.6352V56.52H89.8352V44.41H97.3952V26.84L93.9652 23.41H88.5052L85.0752 26.84V57.57L88.5052 61ZM92.6352 27.89V39.93H89.8352V27.89H92.6352ZM103.886 61H109.346L112.776 57.57V43.36L109.346 39.93H105.216V27.89H108.016V33.91H112.776V26.84L109.346 23.41H103.886L100.456 26.84V40.98L103.886 44.41H108.016V56.52H105.216V50.5H100.456V57.57L103.886 61Z" fill="black"/>
<path d="M157.49 12.694C157.667 11.567 159.29 11.567 159.466 12.694L161.65 26.6317C161.784 27.4887 162.871 27.78 163.416 27.105L172.276 16.1263C172.992 15.2385 174.397 16.0499 173.987 17.1142L168.909 30.2764C168.597 31.0857 169.392 31.8816 170.202 31.5693L183.364 26.4914C184.428 26.0808 185.24 27.4862 184.352 28.2026L173.373 37.0624C172.698 37.6072 172.989 38.6943 173.846 38.8286L187.784 41.012C188.911 41.1886 188.911 42.8114 187.784 42.988L173.846 45.1714C172.989 45.3057 172.698 46.3928 173.373 46.9376L184.352 55.7974C185.24 56.5138 184.428 57.9192 183.364 57.5086L170.202 52.4307C169.392 52.1184 168.597 52.9143 168.909 53.7236L173.987 66.8858C174.397 67.9501 172.992 68.7615 172.276 67.8737L163.416 56.895C162.871 56.22 161.784 56.5113 161.65 57.3683L159.466 71.306C159.29 72.433 157.667 72.433 157.49 71.306L155.307 57.3683C155.173 56.5113 154.085 56.22 153.541 56.895L144.681 67.8737C143.964 68.7615 142.559 67.9501 142.97 66.8858L148.048 53.7236C148.36 52.9143 147.564 52.1184 146.755 52.4307L133.592 57.5086C132.528 57.9192 131.717 56.5138 132.604 55.7974L143.583 46.9376C144.258 46.3928 143.967 45.3057 143.11 45.1714L129.172 42.988C128.045 42.8114 128.045 41.1886 129.172 41.012L143.11 38.8286C143.967 38.6943 144.258 37.6072 143.583 37.0624L132.604 28.2026C131.717 27.4862 132.528 26.0808 133.592 26.4914L146.755 31.5693C147.564 31.8816 148.36 31.0857 148.048 30.2764L142.97 17.1142C142.559 16.0499 143.964 15.2386 144.681 16.1263L153.541 27.105C154.085 27.78 155.173 27.4887 155.307 26.6317L157.49 12.694Z" fill="#FF4B4B"/>
</svg>
