<svg width="196" height="85" viewBox="0 0 196 85" fill="none" xmlns="http://www.w3.org/2000/svg">
<path d="M2.49459 77.4879H7.25459V59.9879L9.14459 61.8779H12.1546L14.8146 59.2179V26.9479L12.1546 24.2879H9.14459L7.25459 26.1779V24.2879H2.49459V77.4879ZM10.0546 28.7679V57.3979H7.25459V28.7679H10.0546ZM25.1554 22.3279L29.4254 18.0579V13.7179H26.0655L24.4554 19.8079H21.9354V22.3279H25.1554ZM21.3054 61.8779H26.7654L30.1955 58.4479V51.3779H25.4354V57.3979H22.6354V45.2879H30.1955V27.7179L26.7654 24.2879H21.3054L17.8754 27.7179V58.4479L21.3054 61.8779ZM25.4354 28.7679V40.8079H22.6354V28.7679H25.4354ZM33.2563 77.4879H38.0163V59.9879L39.9063 61.8779H42.9163L45.5763 59.2179V26.9479L42.9163 24.2879H39.9063L38.0163 26.1779V24.2879H33.2563V77.4879ZM40.8163 28.7679V57.3979H38.0163V28.7679H40.8163ZM52.0672 61.8779H57.5272L60.9572 58.4479V51.3779H56.1972V57.3979H53.3972V45.2879H60.9572V27.7179L57.5272 24.2879H52.0672L48.6372 27.7179V58.4479L52.0672 61.8779ZM56.1972 28.7679V40.8079H53.3972V28.7679H56.1972ZM68.148 61.8779H72.208V57.3979H69.478V28.7679H72.208V24.2879H69.478V19.2479H67.238L63.458 25.3379V28.7679H64.718V58.4479L68.148 61.8779ZM79.1539 61.8779H83.2139V57.3979H80.4839V28.7679H83.2139V24.2879H80.4839V19.2479H78.2439L74.4639 25.3379V28.7679H75.7239V58.4479L79.1539 61.8779ZM89.4597 61.8779H94.9197L98.3497 58.4479V51.3779H93.5897V57.3979H90.7897V45.2879H98.3497V27.7179L94.9197 24.2879H89.4597L86.0297 27.7179V58.4479L89.4597 61.8779ZM93.5897 28.7679V40.8079H90.7897V28.7679H93.5897ZM104.841 61.8779H110.301L113.731 58.4479V44.2379L110.301 40.8079H106.171V28.7679H108.971V34.7879H113.731V27.7179L110.301 24.2879H104.841L101.411 27.7179V41.8579L104.841 45.2879H108.971V57.3979H106.171V51.3779H101.411V58.4479L104.841 61.8779Z" fill="white"/>
<path d="M158.445 13.572C158.621 12.445 160.244 12.445 160.421 13.572L162.604 27.5097C162.738 28.3667 163.825 28.658 164.37 27.983L173.23 17.0042C173.946 16.1165 175.352 16.9279 174.941 17.9922L169.863 31.1544C169.551 31.9637 170.347 32.7595 171.156 32.4473L184.318 27.3694C185.383 26.9588 186.194 28.3642 185.306 29.0806L174.328 37.9404C173.653 38.4852 173.944 39.5723 174.801 39.7066L188.739 41.89C189.866 42.0666 189.866 43.6894 188.739 43.8659L174.801 46.0494C173.944 46.1837 173.653 47.2708 174.328 47.8156L185.306 56.6754C186.194 57.3918 185.383 58.7972 184.318 58.3866L171.156 53.3087C170.347 52.9964 169.551 53.7923 169.863 54.6016L174.941 67.7638C175.352 68.828 173.946 69.6394 173.23 68.7517L164.37 57.773C163.825 57.098 162.738 57.3892 162.604 58.2463L160.421 72.184C160.244 73.311 158.621 73.311 158.445 72.184L156.261 58.2463C156.127 57.3892 155.04 57.098 154.495 57.773L145.635 68.7517C144.919 69.6394 143.513 68.828 143.924 67.7638L149.002 54.6016C149.314 53.7923 148.518 52.9964 147.709 53.3087L134.547 58.3866C133.483 58.7972 132.671 57.3918 133.559 56.6754L144.538 47.8156C145.213 47.2708 144.921 46.1837 144.064 46.0494L130.127 43.8659C129 43.6894 129 42.0666 130.127 41.89L144.064 39.7066C144.921 39.5723 145.213 38.4852 144.538 37.9404L133.559 29.0806C132.671 28.3642 133.483 26.9588 134.547 27.3694L147.709 32.4473C148.518 32.7595 149.314 31.9637 149.002 31.1544L143.924 17.9922C143.513 16.9279 144.919 16.1165 145.635 17.0043L154.495 27.983C155.04 28.658 156.127 28.3667 156.261 27.5097L158.445 13.572Z" fill="#9BFF99"/>
</svg>
