<svg width="259" height="363" viewBox="0 0 259 363" fill="none" xmlns="http://www.w3.org/2000/svg">
<path d="M246.595 218.024C251.288 218.449 251.725 225.138 247.127 226.17L190.258 238.923C186.762 239.708 185.853 244.267 188.783 246.331L236.427 279.899C240.279 282.613 237.312 288.625 232.815 287.219L177.188 269.83C173.768 268.761 170.701 272.256 172.206 275.508L196.683 328.4C198.662 332.677 193.087 336.4 189.895 332.933L150.416 290.061C147.988 287.424 143.585 288.918 143.263 292.487L138.014 350.531C137.59 355.225 130.9 355.662 129.869 351.063L117.115 294.195C116.331 290.698 111.771 289.79 109.707 292.719L76.1393 340.363C73.4251 344.215 67.4131 341.249 68.8192 336.751L86.2084 281.125C87.2776 277.704 83.7827 274.638 80.5304 276.143L27.6383 300.62C23.3616 302.599 19.6383 297.024 23.1049 293.832L65.9777 254.352C68.6138 251.925 67.1204 247.522 63.5513 247.199L5.50696 241.95C0.813635 241.526 0.37671 234.836 4.97496 233.805L61.8435 221.051C65.3403 220.267 66.2484 215.707 63.3188 213.643L15.6752 180.076C11.8229 177.361 14.7894 171.35 19.2872 172.756L74.9137 190.145C78.3341 191.214 81.4005 187.719 79.8954 184.467L55.4186 131.575C53.4395 127.298 59.0145 123.575 62.2067 127.041L101.686 169.914C104.114 172.55 108.517 171.057 108.839 167.488L114.088 109.443C114.512 104.75 121.202 104.313 122.233 108.911L134.987 165.78C135.771 169.277 140.331 170.185 142.395 167.255L175.963 119.612C178.677 115.759 184.689 118.726 183.283 123.224L165.893 178.85C164.824 182.271 168.319 185.337 171.571 183.832L224.464 159.355C228.74 157.376 232.464 162.951 228.997 166.143L186.124 205.622C183.488 208.05 184.982 212.453 188.551 212.776L246.595 218.024Z" fill="#FF4B4B"/>
<path d="M187.722 101.67C191.684 102.028 192.053 107.675 188.171 108.545L140.169 119.311C137.218 119.973 136.451 123.822 138.924 125.564L179.139 153.898C182.391 156.189 179.887 161.264 176.091 160.077L129.137 145.399C126.25 144.496 123.661 147.446 124.932 150.191L145.592 194.837C147.263 198.447 142.557 201.59 139.863 198.664L106.538 162.475C104.489 160.25 100.773 161.511 100.5 164.523L96.0702 213.518C95.712 217.48 90.0652 217.848 89.1947 213.967L78.4294 165.965C77.7675 163.013 73.9185 162.247 72.1763 164.72L43.8423 204.935C41.5513 208.187 36.4766 205.683 37.6635 201.886L52.3415 154.932C53.2441 152.045 50.294 149.457 47.5488 150.727L2.90307 171.388C-0.706884 173.059 -3.84965 168.353 -0.923537 165.658L35.265 132.334C37.4901 130.285 36.2295 126.569 33.2169 126.296L-15.7778 121.866C-19.7394 121.508 -20.1082 115.861 -16.2269 114.99L31.7754 104.225C34.727 103.563 35.4935 99.7143 33.0207 97.972L-7.19486 69.638C-10.4466 67.347 -7.94261 62.2724 -4.14603 63.4592L42.8078 78.1373C45.6949 79.0398 48.2832 76.0898 47.0128 73.3445L26.3522 28.6988C24.6816 25.0889 29.3874 21.9461 32.0819 24.8722L65.4061 61.0607C67.4551 63.2859 71.1717 62.0252 71.4441 59.0126L75.8743 10.0179C76.2325 6.05634 81.8793 5.68753 82.7498 9.56887L93.5151 57.5711C94.177 60.5227 98.026 61.2892 99.7682 58.8164L128.102 18.6009C130.393 15.3491 135.468 17.8531 134.281 21.6497L119.603 68.6035C118.7 71.4907 121.65 74.079 124.396 72.8086L169.041 52.1479C172.651 50.4773 175.794 55.1832 172.868 57.8777L136.68 91.2018C134.454 93.2509 135.715 96.9674 138.728 97.2399L187.722 101.67Z" fill="#001AFF"/>
<path d="M110.205 178.154C114.012 178.498 114.367 183.925 110.636 184.761L64.5031 195.107C61.6664 195.744 60.9297 199.443 63.3062 201.117L101.956 228.348C105.081 230.55 102.675 235.427 99.0259 234.286L53.9002 220.18C51.1254 219.312 48.6379 222.147 49.8589 224.786L69.7151 267.693C71.3206 271.163 66.798 274.183 64.2084 271.371L32.1817 236.591C30.2124 234.453 26.6406 235.664 26.3788 238.56L22.1211 285.647C21.7768 289.454 16.3499 289.809 15.5133 286.078L5.16714 239.945C4.53097 237.108 0.831868 236.372 -0.842534 238.748L-28.0734 277.398C-30.2752 280.523 -35.1522 278.117 -34.0116 274.468L-19.905 229.342C-19.0376 226.567 -21.8728 224.08 -24.5111 225.301L-67.4186 245.157C-70.888 246.763 -73.9084 242.24 -71.0963 239.65L-36.3168 207.624C-34.1782 205.654 -35.3898 202.083 -38.2851 201.821L-85.3722 197.563C-89.1795 197.219 -89.534 191.792 -85.8038 190.955L-39.6705 180.609C-36.8338 179.973 -36.0971 176.274 -38.4737 174.599L-77.1234 147.369C-80.2485 145.167 -77.842 140.29 -74.1933 141.43L-29.0676 155.537C-26.2929 156.404 -23.8053 153.569 -25.0263 150.931L-44.8825 108.023C-46.488 104.554 -41.9654 101.534 -39.3758 104.346L-7.34915 139.125C-5.37986 141.264 -1.808 140.052 -1.5462 137.157L2.71152 90.0698C3.05579 86.2625 8.4827 85.908 9.31926 89.6382L19.6654 135.772C20.3016 138.608 24.0007 139.345 25.6751 136.968L52.906 98.3186C55.1078 95.1935 59.9848 97.6 58.8442 101.249L44.7376 146.374C43.8702 149.149 46.7054 151.637 49.3437 150.416L92.2512 130.559C95.7206 128.954 98.741 133.477 95.9288 136.066L61.1493 168.093C59.0108 170.062 60.2223 173.634 63.1177 173.896L110.205 178.154Z" fill="#9BFF99"/>
</svg>
